<?xml version="1.0" encoding="utf-8"?>
<!-- Generator: Adobe Illustrator 26.0.0, SVG Export Plug-In . SVG Version: 6.00 Build 0)  -->
<svg version="1.1" id="Слой_1" xmlns="http://www.w3.org/2000/svg" xmlns:xlink="http://www.w3.org/1999/xlink" x="0px" y="0px"
	 viewBox="0 0 16 16" style="enable-background:new 0 0 16 16;" xml:space="preserve">
<style type="text/css">
	.st0{fill:#FFFFFF;}
	.st1{fill:url(#SVGID_1_);}
	.st2{fill:url(#SVGID_00000175301627242847535880000009722989371372577456_);}
</style>
<g>
	<path class="st0" d="M5.7,4.7h6c0.1,0,0.2,0,0.3,0c-0.1-0.8-0.9-1.4-1.7-1.3c0,0,0,0-0.1,0l-5.8,1c-0.1,0-0.2,0-0.2,0h0
		c0,0-0.1,0-0.1,0C3.1,4.7,2.9,5.5,2.9,6v0.6c0,0.1,0,0.1,0,0.2v4.4c0,0.8,0.7,1.5,1.5,1.5h7.4c0.8,0,1.5-0.7,1.5-1.5V6.7
		c0-0.8-0.7-1.5-1.5-1.5H5.8C5.4,5.2,5.4,4.8,5.7,4.7z M10.6,8.2c0.4,0,0.7,0.3,0.7,0.7c0,0.4-0.3,0.7-0.7,0.7
		c-0.4,0-0.7-0.3-0.7-0.7C9.8,8.5,10.2,8.2,10.6,8.2z"/>
	<g>
		<radialGradient id="SVGID_1_" cx="10.5844" cy="8.9187" r="0.7351" gradientUnits="userSpaceOnUse">
			<stop  offset="0" style="stop-color:#4B32C6"/>
			<stop  offset="0.3462" style="stop-color:#4E32C9"/>
			<stop  offset="0.591" style="stop-color:#5733D1"/>
			<stop  offset="0.707" style="stop-color:#5835D5"/>
			<stop  offset="0.832" style="stop-color:#593BE2"/>
			<stop  offset="0.8712" style="stop-color:#5A3DE8"/>
			<stop  offset="0.9338" style="stop-color:#5C49F4"/>
			<stop  offset="1" style="stop-color:#5D51FC"/>
		</radialGradient>
		<circle class="st1" cx="10.6" cy="8.9" r="0.7"/>
		
			<radialGradient id="SVGID_00000173123033243850270330000006673583722767989934_" cx="8" cy="8" r="8" gradientUnits="userSpaceOnUse">
			<stop  offset="0" style="stop-color:#4B32C6"/>
			<stop  offset="0.3462" style="stop-color:#4E32C9"/>
			<stop  offset="0.591" style="stop-color:#5733D1"/>
			<stop  offset="0.707" style="stop-color:#5835D5"/>
			<stop  offset="0.832" style="stop-color:#593BE2"/>
			<stop  offset="0.8712" style="stop-color:#5A3DE8"/>
			<stop  offset="0.9338" style="stop-color:#5C49F4"/>
			<stop  offset="1" style="stop-color:#5D51FC"/>
		</radialGradient>
		<path style="fill:url(#SVGID_00000173123033243850270330000006673583722767989934_);" d="M12,0H4C1.8,0,0,1.8,0,4v8
			c0,2.2,1.8,4,4,4h8c2.2,0,4-1.8,4-4V4C16,1.8,14.2,0,12,0z M13.1,11.1c0,0.8-0.7,1.5-1.5,1.5H4.3c-0.8,0-1.5-0.7-1.5-1.5V6.7
			c0-0.1,0-0.1,0-0.2V6c0-0.5,0.3-1.3,1.1-1.5c0,0,0.1,0,0.1,0h0c0.1,0,0.2,0,0.2,0l5.8-1c0,0,0,0,0.1,0c0.8-0.1,1.6,0.5,1.7,1.3
			c-0.1,0-0.2,0-0.3,0h-6C5.4,4.8,5.4,5.2,5.8,5.2h5.9c0.8,0,1.5,0.7,1.5,1.5V11.1z"/>
	</g>
</g>
</svg>
