<?xml version="1.0" encoding="utf-8"?>
<!-- Generator: Adobe Illustrator 26.0.0, SVG Export Plug-In . SVG Version: 6.00 Build 0)  -->
<svg version="1.1" id="Слой_1" xmlns="http://www.w3.org/2000/svg" xmlns:xlink="http://www.w3.org/1999/xlink" x="0px" y="0px"
	 width="119px" height="29.9px" viewBox="0 0 119 29.9" style="enable-background:new 0 0 119 29.9;" xml:space="preserve">
<style type="text/css">
	.st0{fill:url(#SVGID_1_);}
	.st1{fill:#FFFFFF;}
	.st2{fill:#5733D1;}
	.st3{fill:#00ebb0;}
</style>
<g>
	<radialGradient id="SVGID_1_" cx="15" cy="15" r="15" gradientUnits="userSpaceOnUse">
		<stop  offset="0" style="stop-color:#4B32C6"/>
		<stop  offset="0.3462" style="stop-color:#4E32C9"/>
		<stop  offset="0.591" style="stop-color:#5733D1"/>
		<stop  offset="0.707" style="stop-color:#5835D5"/>
		<stop  offset="0.832" style="stop-color:#593BE2"/>
		<stop  offset="0.8712" style="stop-color:#5A3DE8"/>
		<stop  offset="0.9338" style="stop-color:#5C49F4"/>
		<stop  offset="1" style="stop-color:#5D51FC"/>
	</radialGradient>
	<path class="st0" d="M21.8,30H8.2C3.7,30,0,26.3,0,21.8V8.2C0,3.7,3.7,0,8.2,0h13.6C26.3,0,30,3.7,30,8.2v13.6
		C30,26.3,26.3,30,21.8,30z"/>
	<g>
		<path class="st1" d="M23.4,11.3c-0.3-0.3-0.6-0.4-1-0.4h-2.8v-0.7c0-2.7-2.2-4.7-4.7-4.7c-2.7,0-4.7,2.2-4.7,4.7v0.7H7.5
			c-0.8,0-1.4,0.6-1.4,1.4v9.2c0,1.7,1.4,3.1,3.1,3.1h11.5c0.8,0,1.6-0.3,2.2-0.9c0.6-0.6,0.9-1.3,0.9-2.2v-9.3
			C23.8,11.9,23.7,11.6,23.4,11.3z M16.7,17.8h-1.2v2c0,0.2,0,0.3,0.1,0.3c0.1,0.1,0.2,0.1,0.3,0.1c0.2,0,0.4,0,0.6,0h0.1v1.4h-0.1
			c-0.3,0-0.5,0-0.7,0c-0.6,0-1-0.1-1.3-0.3C14.2,21,14,20.5,14,19.8v-2h-0.9v-1.4h3.5v1.4H16.7z M14,14.9c0-0.3,0.1-0.5,0.3-0.7
			c0.2-0.2,0.4-0.3,0.7-0.3s0.5,0.1,0.7,0.3s0.3,0.4,0.3,0.7s-0.1,0.5-0.3,0.7c-0.2,0.2-0.4,0.3-0.7,0.3s-0.5-0.1-0.7-0.3
			C14.1,15.3,14,15.1,14,14.9z M18.4,10.9h-6.8v-0.7c0-1.9,1.5-3.5,3.5-3.5c1.9,0,3.5,1.5,3.5,3.5L18.4,10.9L18.4,10.9z"/>
	</g>
</g>
<g>
	<path class="st2" d="M99.1,9.1c-1.2,0-2.2,0.3-3.2,0.8c-0.6,0.4-1.2,0.9-1.6,1.5v-2h-4.8v17.4h4.8v-8.3c0-1.5,0.5-2.6,1.4-3.2
		c1-0.7,2.1-0.9,3.3-0.8h0.3V9.1H99.1z"/>
	<path class="st2" d="M85.2,13.2c-0.8-1.4-1.9-2.4-3.3-3.2c-1.4-0.8-2.9-1.2-4.6-1.2c-1.2,0-2.4,0.2-3.5,0.7s-2,1.1-2.9,2
		c-0.8,0.8-1.5,1.8-1.9,2.9c-0.5,1.1-0.7,2.3-0.7,3.5c0,1.3,0.2,2.5,0.8,3.6c0.5,1.1,1.2,2.1,2.1,2.9s1.9,1.4,3,1.9s2.2,0.7,3.3,0.7
		c1.1,0,2.2-0.2,3.3-0.6c1.1-0.4,2-1,2.9-1.8s1.5-1.8,2-2.9s0.8-2.4,0.8-3.7C86.4,16.1,86,14.6,85.2,13.2z M81.1,20.1
		c-0.4,0.7-1,1.2-1.6,1.5c-0.7,0.4-1.3,0.5-2.1,0.5c-0.7,0-1.4-0.2-2.1-0.5c-0.7-0.4-1.2-0.9-1.6-1.5c-0.4-0.7-0.6-1.4-0.6-2.4
		c0-0.8,0.2-1.6,0.6-2.2c0.4-0.6,0.9-1.2,1.5-1.5c0.6-0.4,1.4-0.6,2.1-0.6c0.8,0,1.6,0.2,2.3,0.5c0.7,0.4,1.2,0.9,1.5,1.5
		c0.4,0.6,0.6,1.4,0.6,2.2C81.7,18.6,81.5,19.4,81.1,20.1z"/>
	<path class="st2" d="M50.5,18.4c-0.6-0.8-1.4-1.3-2.2-1.7c-0.8-0.3-1.7-0.6-2.5-0.8s-1.5-0.4-2.1-0.7C43,14.9,43,14.5,43,14.4
		c0-0.3,0.1-0.6,0.4-0.8c0.3-0.2,0.7-0.3,1.2-0.3c1.1,0,1.9,0.5,2.4,1.5l0.1,0.3l4.1-2.2l-0.1-0.2c-0.7-1.2-1.6-2.1-2.7-2.7
		c-1.2-0.7-2.5-1-3.8-1c-1.8,0-3.4,0.5-4.6,1.5c-1.3,1-1.9,2.3-1.9,4c0,1.1,0.3,2.1,0.9,2.9c0.6,0.7,1.4,1.3,2.2,1.6
		c0.8,0.3,1.7,0.6,2.5,0.8c0.8,0.2,1.5,0.5,2.1,0.7c0.7,0.3,0.7,0.7,0.7,0.8c0,0.3,0,1.1-2,1.1c-1.6,0-2.5-0.6-3-2l-0.1-0.3
		l-4.2,2.4l0.1,0.2c1.3,2.7,3.7,4.1,7.2,4.1c1.9,0,3.6-0.5,4.9-1.4c1.3-1,2-2.3,2-4.1C51.4,20.2,51.1,19.2,50.5,18.4z"/>
	<g>
		<path class="st2" d="M65.2,14.1V9.4H53.9V14h2.9v6.6c0,2.3,0.6,4,1.9,4.9c0.9,0.7,2.3,1,4.1,1c0.7,0,1.4,0,2.2-0.1h0.2V22h-0.3
			c-0.8,0-1.5,0.1-2,0c-0.5,0-0.8-0.2-1.1-0.4c-0.2-0.2-0.3-0.6-0.3-1V14h3.7V14.1z"/>
		<path class="st3" d="M59.3,8c-0.9,0-1.6-0.3-2.3-1c-0.6-0.6-1-1.4-1-2.3s0.3-1.6,1-2.3c0.6-0.6,1.4-1,2.3-1c0.9,0,1.7,0.3,2.3,1
			c0.6,0.6,1,1.4,1,2.3s-0.3,1.6-1,2.3C60.9,7.7,60.2,8,59.3,8z"/>
	</g>
</g>
<g>
	<path class="st2" d="M119,19.5h-11.4c0.2,2.5,1.8,3.8,4.8,3.8c1.9,0,3.6-0.5,5.1-1.4v3.9c-1.6,0.9-3.7,1.3-6.3,1.3
		c-2.8,0-5-0.8-6.6-2.3c-1.6-1.6-2.3-3.7-2.3-6.5c0-2.9,0.8-5.2,2.5-6.9c1.7-1.7,3.8-2.5,6.2-2.5c2.5,0,4.5,0.8,5.9,2.3
		c1.4,1.5,2.1,3.6,2.1,6.2V19.5z M114,16.2c0-2.5-1-3.8-3-3.8c-0.9,0-1.6,0.4-2.2,1.1c-0.6,0.7-1,1.6-1.2,2.7H114z"/>
</g>
</svg>
